<mxfile host="65bd71144e">
    <diagram name="Page-1" id="yDfNFinJAzQXPqqPIYiH">
        <mxGraphModel dx="2156" dy="626" grid="1" gridSize="10" guides="1" tooltips="1" connect="1" arrows="1" fold="1" page="1" pageScale="1" pageWidth="850" pageHeight="1100" background="none" math="0" shadow="0">
            <root>
                <mxCell id="0"/>
                <mxCell id="1" parent="0"/>
                <mxCell id="zzaShAJUH8Mr4S-TDmGa-9" value="Business" style="shape=umlFrame;whiteSpace=wrap;html=1;pointerEvents=0;width=80;height=40;fillColor=default;fillStyle=auto;gradientColor=none;fontColor=default;rounded=0;fontStyle=0" parent="1" vertex="1">
                    <mxGeometry x="-800" y="980" width="2690" height="580" as="geometry"/>
                </mxCell>
                <mxCell id="26" value="" style="rounded=0;whiteSpace=wrap;html=1;fillColor=#f8cecc;strokeColor=#b85450;" parent="1" vertex="1">
                    <mxGeometry x="-170" y="1360" width="330" height="130" as="geometry"/>
                </mxCell>
                <mxCell id="zzaShAJUH8Mr4S-TDmGa-8" value="Presentation" style="shape=umlFrame;whiteSpace=wrap;html=1;pointerEvents=0;width=80;height=40;fontColor=default;rounded=0;" parent="1" vertex="1">
                    <mxGeometry x="-800" y="510" width="2700" height="430" as="geometry"/>
                </mxCell>
                <mxCell id="zzaShAJUH8Mr4S-TDmGa-10" value="Persistence" style="shape=umlFrame;whiteSpace=wrap;html=1;pointerEvents=0;width=80;height=40;fontColor=default;rounded=0;" parent="1" vertex="1">
                    <mxGeometry x="-800" y="1600" width="2690" height="350" as="geometry"/>
                </mxCell>
                <mxCell id="zzaShAJUH8Mr4S-TDmGa-12" value="&lt;div&gt;&lt;code&gt;&lt;i&gt;&lt;font&gt;&amp;lt;&amp;lt;Abstract&amp;gt;&amp;gt;&lt;/font&gt;&lt;/i&gt;&lt;/code&gt;&lt;/div&gt;&lt;font face=&quot;monospace&quot;&gt;&lt;i&gt;Room&lt;/i&gt;&lt;/font&gt;" style="swimlane;fontStyle=1;align=center;verticalAlign=top;childLayout=stackLayout;horizontal=1;startSize=40;horizontalStack=0;resizeParent=1;resizeParentMax=0;resizeLast=0;collapsible=1;marginBottom=0;whiteSpace=wrap;html=1;fontColor=default;rounded=0;" parent="1" vertex="1">
                    <mxGeometry x="160" y="1060" width="190" height="190" as="geometry"/>
                </mxCell>
                <mxCell id="zzaShAJUH8Mr4S-TDmGa-13" value="#&amp;nbsp;&lt;code&gt;&lt;font&gt;roomId&lt;/font&gt;&lt;/code&gt;: Strin&lt;span style=&quot;background-color: transparent;&quot;&gt;g&lt;/span&gt;&lt;div&gt;&lt;div&gt;# buildingBlock&lt;span style=&quot;background-color: transparent;&quot;&gt;: String&lt;/span&gt;&lt;/div&gt;&lt;/div&gt;&lt;div&gt;&lt;span style=&quot;background-color: transparent;&quot;&gt;#&amp;nbsp;&lt;/span&gt;area&lt;span style=&quot;background-color: transparent;&quot;&gt;: double&lt;/span&gt;&lt;/div&gt;&lt;div&gt;&lt;span style=&quot;background-color: transparent;&quot;&gt;#&amp;nbsp;&lt;/span&gt;numLightBulbs&lt;span style=&quot;background-color: transparent;&quot;&gt;: int&lt;/span&gt;&lt;/div&gt;&lt;div&gt;&lt;span style=&quot;background-color: transparent;&quot;&gt;#&amp;nbsp;&lt;/span&gt;startDateOfOperation&lt;span style=&quot;background-color: transparent;&quot;&gt;: Date&lt;/span&gt;&lt;/div&gt;" style="text;strokeColor=none;fillColor=none;align=left;verticalAlign=top;spacingLeft=4;spacingRight=4;overflow=hidden;rotatable=0;points=[[0,0.5],[1,0.5]];portConstraint=eastwest;whiteSpace=wrap;html=1;fontColor=default;rounded=0;" parent="zzaShAJUH8Mr4S-TDmGa-12" vertex="1">
                    <mxGeometry y="40" width="190" height="84" as="geometry"/>
                </mxCell>
                <mxCell id="zzaShAJUH8Mr4S-TDmGa-14" value="" style="line;strokeWidth=1;fillColor=none;align=left;verticalAlign=middle;spacingTop=-1;spacingLeft=3;spacingRight=3;rotatable=0;labelPosition=right;points=[];portConstraint=eastwest;strokeColor=inherit;fontColor=default;rounded=0;" parent="zzaShAJUH8Mr4S-TDmGa-12" vertex="1">
                    <mxGeometry y="124" width="190" height="8" as="geometry"/>
                </mxCell>
                <mxCell id="zzaShAJUH8Mr4S-TDmGa-15" value="# contructor()&amp;nbsp;&lt;br&gt;# checkSufficientLight(): Boolean&lt;div&gt;&lt;i&gt;#&amp;nbsp;meetsStandard(): Boolean&lt;/i&gt;&lt;/div&gt;" style="text;strokeColor=none;fillColor=none;align=left;verticalAlign=top;spacingLeft=4;spacingRight=4;overflow=hidden;rotatable=0;points=[[0,0.5],[1,0.5]];portConstraint=eastwest;whiteSpace=wrap;html=1;fontColor=default;rounded=0;" parent="zzaShAJUH8Mr4S-TDmGa-12" vertex="1">
                    <mxGeometry y="132" width="190" height="58" as="geometry"/>
                </mxCell>
                <mxCell id="zzaShAJUH8Mr4S-TDmGa-16" value="&lt;code&gt;&lt;font&gt;LectureHall             &lt;/font&gt;&lt;/code&gt;" style="swimlane;fontStyle=1;align=center;verticalAlign=top;childLayout=stackLayout;horizontal=1;startSize=26;horizontalStack=0;resizeParent=1;resizeParentMax=0;resizeLast=0;collapsible=1;marginBottom=0;whiteSpace=wrap;html=1;fontColor=default;rounded=0;" parent="1" vertex="1">
                    <mxGeometry x="470" y="1060" width="170" height="120" as="geometry"/>
                </mxCell>
                <mxCell id="zzaShAJUH8Mr4S-TDmGa-17" value="+ hasProjector: Boolean" style="text;strokeColor=none;fillColor=none;align=left;verticalAlign=top;spacingLeft=4;spacingRight=4;overflow=hidden;rotatable=0;points=[[0,0.5],[1,0.5]];portConstraint=eastwest;whiteSpace=wrap;html=1;fontColor=default;rounded=0;" parent="zzaShAJUH8Mr4S-TDmGa-16" vertex="1">
                    <mxGeometry y="26" width="170" height="26" as="geometry"/>
                </mxCell>
                <mxCell id="zzaShAJUH8Mr4S-TDmGa-18" value="" style="line;strokeWidth=1;fillColor=none;align=left;verticalAlign=middle;spacingTop=-1;spacingLeft=3;spacingRight=3;rotatable=0;labelPosition=right;points=[];portConstraint=eastwest;strokeColor=inherit;fontColor=default;rounded=0;" parent="zzaShAJUH8Mr4S-TDmGa-16" vertex="1">
                    <mxGeometry y="52" width="170" height="8" as="geometry"/>
                </mxCell>
                <mxCell id="zzaShAJUH8Mr4S-TDmGa-19" value="+ contructor()&lt;div&gt;@Override&lt;br&gt;+ meetsStandard():&amp;nbsp;&lt;span style=&quot;background-color: transparent;&quot;&gt;Boolean&lt;/span&gt;&lt;/div&gt;" style="text;strokeColor=none;fillColor=none;align=left;verticalAlign=top;spacingLeft=4;spacingRight=4;overflow=hidden;rotatable=0;points=[[0,0.5],[1,0.5]];portConstraint=eastwest;whiteSpace=wrap;html=1;fontColor=default;rounded=0;" parent="zzaShAJUH8Mr4S-TDmGa-16" vertex="1">
                    <mxGeometry y="60" width="170" height="60" as="geometry"/>
                </mxCell>
                <mxCell id="zzaShAJUH8Mr4S-TDmGa-20" value="&lt;code&gt;&lt;font&gt;ComputerLab             &lt;/font&gt;&lt;/code&gt;" style="swimlane;fontStyle=1;align=center;verticalAlign=top;childLayout=stackLayout;horizontal=1;startSize=26;horizontalStack=0;resizeParent=1;resizeParentMax=0;resizeLast=0;collapsible=1;marginBottom=0;whiteSpace=wrap;html=1;fontColor=default;rounded=0;" parent="1" vertex="1">
                    <mxGeometry x="470" y="1220" width="170" height="120" as="geometry"/>
                </mxCell>
                <mxCell id="zzaShAJUH8Mr4S-TDmGa-21" value="+&amp;nbsp;&lt;code&gt;&lt;font&gt;numComputers&lt;/font&gt;&lt;/code&gt;: int" style="text;strokeColor=none;fillColor=none;align=left;verticalAlign=top;spacingLeft=4;spacingRight=4;overflow=hidden;rotatable=0;points=[[0,0.5],[1,0.5]];portConstraint=eastwest;whiteSpace=wrap;html=1;fontColor=default;rounded=0;" parent="zzaShAJUH8Mr4S-TDmGa-20" vertex="1">
                    <mxGeometry y="26" width="170" height="26" as="geometry"/>
                </mxCell>
                <mxCell id="zzaShAJUH8Mr4S-TDmGa-22" value="" style="line;strokeWidth=1;fillColor=none;align=left;verticalAlign=middle;spacingTop=-1;spacingLeft=3;spacingRight=3;rotatable=0;labelPosition=right;points=[];portConstraint=eastwest;strokeColor=inherit;fontColor=default;rounded=0;" parent="zzaShAJUH8Mr4S-TDmGa-20" vertex="1">
                    <mxGeometry y="52" width="170" height="8" as="geometry"/>
                </mxCell>
                <mxCell id="zzaShAJUH8Mr4S-TDmGa-23" value="+ contructor()&lt;div&gt;@Override&lt;br&gt;+ meetsStandard():&amp;nbsp;&lt;span style=&quot;background-color: transparent;&quot;&gt;Boolean&lt;/span&gt;&lt;/div&gt;" style="text;strokeColor=none;fillColor=none;align=left;verticalAlign=top;spacingLeft=4;spacingRight=4;overflow=hidden;rotatable=0;points=[[0,0.5],[1,0.5]];portConstraint=eastwest;whiteSpace=wrap;html=1;fontColor=default;rounded=0;" parent="zzaShAJUH8Mr4S-TDmGa-20" vertex="1">
                    <mxGeometry y="60" width="170" height="60" as="geometry"/>
                </mxCell>
                <mxCell id="zzaShAJUH8Mr4S-TDmGa-24" value="&lt;code&gt;&lt;font&gt;Laboratory              &lt;/font&gt;&lt;/code&gt;" style="swimlane;fontStyle=1;align=center;verticalAlign=top;childLayout=stackLayout;horizontal=1;startSize=26;horizontalStack=0;resizeParent=1;resizeParentMax=0;resizeLast=0;collapsible=1;marginBottom=0;whiteSpace=wrap;html=1;fontColor=default;rounded=0;" parent="1" vertex="1">
                    <mxGeometry x="470" y="1380" width="170" height="150" as="geometry"/>
                </mxCell>
                <mxCell id="zzaShAJUH8Mr4S-TDmGa-25" value="+&amp;nbsp;&lt;code&gt;&lt;font&gt;specialization&lt;/font&gt;&lt;/code&gt;: String&lt;div&gt;+ capacity&lt;span style=&quot;background-color: transparent;&quot;&gt;: int&lt;/span&gt;&lt;/div&gt;&lt;div&gt;&lt;span style=&quot;background-color: transparent;&quot;&gt;+&amp;nbsp;&lt;/span&gt;hasSink&lt;span style=&quot;background-color: transparent;&quot;&gt;: Boolean&lt;/span&gt;&lt;/div&gt;" style="text;strokeColor=none;fillColor=none;align=left;verticalAlign=top;spacingLeft=4;spacingRight=4;overflow=hidden;rotatable=0;points=[[0,0.5],[1,0.5]];portConstraint=eastwest;whiteSpace=wrap;html=1;fontColor=default;rounded=0;" parent="zzaShAJUH8Mr4S-TDmGa-24" vertex="1">
                    <mxGeometry y="26" width="170" height="54" as="geometry"/>
                </mxCell>
                <mxCell id="zzaShAJUH8Mr4S-TDmGa-26" value="" style="line;strokeWidth=1;fillColor=none;align=left;verticalAlign=middle;spacingTop=-1;spacingLeft=3;spacingRight=3;rotatable=0;labelPosition=right;points=[];portConstraint=eastwest;strokeColor=inherit;fontColor=default;rounded=0;" parent="zzaShAJUH8Mr4S-TDmGa-24" vertex="1">
                    <mxGeometry y="80" width="170" height="8" as="geometry"/>
                </mxCell>
                <mxCell id="zzaShAJUH8Mr4S-TDmGa-27" value="+ contructor()&lt;div&gt;@Override&lt;br&gt;+ meetsStandard():&amp;nbsp;&lt;span style=&quot;background-color: transparent;&quot;&gt;Boolean&lt;/span&gt;&lt;/div&gt;" style="text;strokeColor=none;fillColor=none;align=left;verticalAlign=top;spacingLeft=4;spacingRight=4;overflow=hidden;rotatable=0;points=[[0,0.5],[1,0.5]];portConstraint=eastwest;whiteSpace=wrap;html=1;fontColor=default;rounded=0;" parent="zzaShAJUH8Mr4S-TDmGa-24" vertex="1">
                    <mxGeometry y="88" width="170" height="62" as="geometry"/>
                </mxCell>
                <mxCell id="zzaShAJUH8Mr4S-TDmGa-28" value="Extends" style="endArrow=block;endSize=16;endFill=0;html=1;rounded=0;fontColor=default;" parent="1" source="zzaShAJUH8Mr4S-TDmGa-16" target="zzaShAJUH8Mr4S-TDmGa-12" edge="1">
                    <mxGeometry width="160" relative="1" as="geometry">
                        <mxPoint x="530" y="880" as="sourcePoint"/>
                        <mxPoint x="690" y="880" as="targetPoint"/>
                    </mxGeometry>
                </mxCell>
                <mxCell id="zzaShAJUH8Mr4S-TDmGa-29" value="Extends" style="endArrow=block;endSize=16;endFill=0;html=1;rounded=0;fontColor=default;" parent="1" source="zzaShAJUH8Mr4S-TDmGa-24" target="zzaShAJUH8Mr4S-TDmGa-12" edge="1">
                    <mxGeometry width="160" relative="1" as="geometry">
                        <mxPoint x="727.5" y="850" as="sourcePoint"/>
                        <mxPoint x="602.5" y="885" as="targetPoint"/>
                    </mxGeometry>
                </mxCell>
                <mxCell id="zzaShAJUH8Mr4S-TDmGa-30" value="Extends" style="endArrow=block;endSize=16;endFill=0;html=1;rounded=0;fontColor=default;" parent="1" source="zzaShAJUH8Mr4S-TDmGa-20" target="zzaShAJUH8Mr4S-TDmGa-12" edge="1">
                    <mxGeometry width="160" relative="1" as="geometry">
                        <mxPoint x="705" y="890" as="sourcePoint"/>
                        <mxPoint x="580" y="925" as="targetPoint"/>
                    </mxGeometry>
                </mxCell>
                <mxCell id="zzaShAJUH8Mr4S-TDmGa-31" value="AddRoomDAO" style="swimlane;fontStyle=1;align=center;verticalAlign=top;childLayout=stackLayout;horizontal=1;startSize=26;horizontalStack=0;resizeParent=1;resizeParentMax=0;resizeLast=0;collapsible=1;marginBottom=0;whiteSpace=wrap;html=1;fontColor=default;rounded=0;" parent="1" vertex="1">
                    <mxGeometry x="-760" y="1820" width="200" height="86" as="geometry"/>
                </mxCell>
                <mxCell id="zzaShAJUH8Mr4S-TDmGa-32" value="+ connection: Connection" style="text;strokeColor=none;fillColor=none;align=left;verticalAlign=top;spacingLeft=4;spacingRight=4;overflow=hidden;rotatable=0;points=[[0,0.5],[1,0.5]];portConstraint=eastwest;whiteSpace=wrap;html=1;fontColor=default;rounded=0;" parent="zzaShAJUH8Mr4S-TDmGa-31" vertex="1">
                    <mxGeometry y="26" width="200" height="26" as="geometry"/>
                </mxCell>
                <mxCell id="zzaShAJUH8Mr4S-TDmGa-33" value="" style="line;strokeWidth=1;fillColor=none;align=left;verticalAlign=middle;spacingTop=-1;spacingLeft=3;spacingRight=3;rotatable=0;labelPosition=right;points=[];portConstraint=eastwest;strokeColor=inherit;fontColor=default;rounded=0;" parent="zzaShAJUH8Mr4S-TDmGa-31" vertex="1">
                    <mxGeometry y="52" width="200" height="8" as="geometry"/>
                </mxCell>
                <mxCell id="zzaShAJUH8Mr4S-TDmGa-34" value="+ addRoom(&lt;span style=&quot;text-align: center;&quot;&gt;PhongHocDTO&lt;/span&gt;): void" style="text;strokeColor=none;fillColor=none;align=left;verticalAlign=top;spacingLeft=4;spacingRight=4;overflow=hidden;rotatable=0;points=[[0,0.5],[1,0.5]];portConstraint=eastwest;whiteSpace=wrap;html=1;fontColor=default;rounded=0;" parent="zzaShAJUH8Mr4S-TDmGa-31" vertex="1">
                    <mxGeometry y="60" width="200" height="26" as="geometry"/>
                </mxCell>
                <mxCell id="zzaShAJUH8Mr4S-TDmGa-35" value="RoomDTO" style="swimlane;fontStyle=1;align=center;verticalAlign=top;childLayout=stackLayout;horizontal=1;startSize=26;horizontalStack=0;resizeParent=1;resizeParentMax=0;resizeLast=0;collapsible=1;marginBottom=0;whiteSpace=wrap;html=1;fontColor=default;rounded=0;" parent="1" vertex="1">
                    <mxGeometry x="-480" y="1680" width="180" height="180" as="geometry"/>
                </mxCell>
                <mxCell id="zzaShAJUH8Mr4S-TDmGa-36" value="+&amp;nbsp;&lt;code&gt;&lt;font&gt;roomId&lt;/font&gt;&lt;/code&gt;: Strin&lt;span style=&quot;background-color: transparent;&quot;&gt;g&lt;/span&gt;&lt;div&gt;+ buildingBlock&lt;span style=&quot;background-color: transparent;&quot;&gt;: String&lt;/span&gt;&lt;/div&gt;&lt;div&gt;&lt;span style=&quot;background-color: transparent;&quot;&gt;+&amp;nbsp;&lt;/span&gt;area&lt;span style=&quot;background-color: transparent;&quot;&gt;: double&lt;/span&gt;&lt;/div&gt;&lt;div&gt;&lt;span style=&quot;background-color: transparent;&quot;&gt;+&amp;nbsp;&lt;/span&gt;numLightBulbs&lt;span style=&quot;background-color: transparent;&quot;&gt;: int&lt;/span&gt;&lt;/div&gt;&lt;div&gt;&lt;span style=&quot;background-color: transparent;&quot;&gt;+&amp;nbsp;&lt;/span&gt;startDateOfOperation&lt;span style=&quot;background-color: transparent;&quot;&gt;: Date&lt;/span&gt;&lt;/div&gt;&lt;div&gt;+ hasProjector: Boolean&lt;/div&gt;&lt;div&gt;+&amp;nbsp;&lt;code&gt;&lt;font&gt;numComputers&lt;/font&gt;&lt;/code&gt;: int&lt;/div&gt;&lt;div&gt;+&amp;nbsp;&lt;code&gt;&lt;font&gt;specialization&lt;/font&gt;&lt;/code&gt;: String&lt;div&gt;+ capacity&lt;span style=&quot;background-color: transparent;&quot;&gt;: int&lt;/span&gt;&lt;/div&gt;&lt;div&gt;&lt;span style=&quot;background-color: transparent;&quot;&gt;+&amp;nbsp;&lt;/span&gt;hasSink&lt;span style=&quot;background-color: transparent;&quot;&gt;: Boolean&lt;/span&gt;&lt;/div&gt;&lt;/div&gt;" style="text;strokeColor=none;fillColor=none;align=left;verticalAlign=top;spacingLeft=4;spacingRight=4;overflow=hidden;rotatable=0;points=[[0,0.5],[1,0.5]];portConstraint=eastwest;whiteSpace=wrap;html=1;fontColor=default;rounded=0;" parent="zzaShAJUH8Mr4S-TDmGa-35" vertex="1">
                    <mxGeometry y="26" width="180" height="154" as="geometry"/>
                </mxCell>
                <mxCell id="zzaShAJUH8Mr4S-TDmGa-39" value="&lt;i style=&quot;font-weight: normal;&quot;&gt;&amp;lt;&amp;lt;Interface&amp;gt;&amp;gt;&lt;/i&gt;&lt;div&gt;&lt;i&gt;AddRoomGateway&lt;/i&gt;&lt;/div&gt;" style="swimlane;fontStyle=1;align=center;verticalAlign=top;childLayout=stackLayout;horizontal=1;startSize=40;horizontalStack=0;resizeParent=1;resizeParentMax=0;resizeLast=0;collapsible=1;marginBottom=0;whiteSpace=wrap;html=1;fontColor=default;rounded=0;" parent="1" vertex="1">
                    <mxGeometry x="-760" y="1680" width="200" height="66" as="geometry"/>
                </mxCell>
                <mxCell id="zzaShAJUH8Mr4S-TDmGa-42" value="+ addRoom(&lt;span style=&quot;text-align: center;&quot;&gt;PhongHocDTO&lt;/span&gt;): void" style="text;strokeColor=none;fillColor=none;align=left;verticalAlign=top;spacingLeft=4;spacingRight=4;overflow=hidden;rotatable=0;points=[[0,0.5],[1,0.5]];portConstraint=eastwest;whiteSpace=wrap;html=1;fontColor=default;rounded=0;" parent="zzaShAJUH8Mr4S-TDmGa-39" vertex="1">
                    <mxGeometry y="40" width="200" height="26" as="geometry"/>
                </mxCell>
                <mxCell id="zzaShAJUH8Mr4S-TDmGa-43" value="" style="endArrow=block;dashed=1;endFill=0;endSize=12;html=1;rounded=0;fontColor=default;" parent="1" source="zzaShAJUH8Mr4S-TDmGa-31" target="zzaShAJUH8Mr4S-TDmGa-39" edge="1">
                    <mxGeometry width="160" relative="1" as="geometry">
                        <mxPoint x="-740" y="1790" as="sourcePoint"/>
                        <mxPoint x="-580" y="1790" as="targetPoint"/>
                    </mxGeometry>
                </mxCell>
                <mxCell id="zzaShAJUH8Mr4S-TDmGa-44" value="Use" style="endArrow=open;endSize=12;dashed=1;html=1;rounded=0;fontColor=default;" parent="1" source="zzaShAJUH8Mr4S-TDmGa-31" target="zzaShAJUH8Mr4S-TDmGa-35" edge="1">
                    <mxGeometry width="160" relative="1" as="geometry">
                        <mxPoint x="-670" y="1790" as="sourcePoint"/>
                        <mxPoint x="-510" y="1790" as="targetPoint"/>
                    </mxGeometry>
                </mxCell>
                <mxCell id="zzaShAJUH8Mr4S-TDmGa-45" value="Use" style="endArrow=open;endSize=12;dashed=1;html=1;rounded=0;fontColor=default;" parent="1" source="zzaShAJUH8Mr4S-TDmGa-39" target="zzaShAJUH8Mr4S-TDmGa-35" edge="1">
                    <mxGeometry width="160" relative="1" as="geometry">
                        <mxPoint x="-620" y="1780" as="sourcePoint"/>
                        <mxPoint x="-460" y="1780" as="targetPoint"/>
                    </mxGeometry>
                </mxCell>
                <mxCell id="zzaShAJUH8Mr4S-TDmGa-49" value="RoomFactory" style="swimlane;fontStyle=1;align=center;verticalAlign=top;childLayout=stackLayout;horizontal=1;startSize=26;horizontalStack=0;resizeParent=1;resizeParentMax=0;resizeLast=0;collapsible=1;marginBottom=0;whiteSpace=wrap;html=1;rounded=0;fillColor=default;strokeColor=default;" parent="1" vertex="1">
                    <mxGeometry x="-100" y="1390" width="190" height="52" as="geometry"/>
                </mxCell>
                <mxCell id="zzaShAJUH8Mr4S-TDmGa-52" value="+ createRoom(RoomDTO): Room" style="text;strokeColor=none;fillColor=default;align=left;verticalAlign=top;spacingLeft=4;spacingRight=4;overflow=hidden;rotatable=0;points=[[0,0.5],[1,0.5]];portConstraint=eastwest;whiteSpace=wrap;html=1;fontColor=default;rounded=0;" parent="zzaShAJUH8Mr4S-TDmGa-49" vertex="1">
                    <mxGeometry y="26" width="190" height="26" as="geometry"/>
                </mxCell>
                <mxCell id="zzaShAJUH8Mr4S-TDmGa-53" value="Use" style="endArrow=open;endSize=12;dashed=1;html=1;rounded=0;fontColor=default;" parent="1" source="zzaShAJUH8Mr4S-TDmGa-49" target="zzaShAJUH8Mr4S-TDmGa-35" edge="1">
                    <mxGeometry width="160" relative="1" as="geometry">
                        <mxPoint x="-490" y="1500" as="sourcePoint"/>
                        <mxPoint x="-330" y="1500" as="targetPoint"/>
                    </mxGeometry>
                </mxCell>
                <mxCell id="zzaShAJUH8Mr4S-TDmGa-54" value="&lt;i&gt;&amp;lt;&amp;lt;Abstract&amp;gt;&amp;gt;&lt;br&gt;RoomViewDTO&lt;/i&gt;" style="swimlane;fontStyle=1;align=center;verticalAlign=top;childLayout=stackLayout;horizontal=1;startSize=40;horizontalStack=0;resizeParent=1;resizeParentMax=0;resizeLast=0;collapsible=1;marginBottom=0;whiteSpace=wrap;html=1;fontColor=default;rounded=0;" parent="1" vertex="1">
                    <mxGeometry x="-500" y="1060" width="180" height="134" as="geometry"/>
                </mxCell>
                <mxCell id="zzaShAJUH8Mr4S-TDmGa-55" value="+&amp;nbsp;&lt;code&gt;roomId&lt;/code&gt;: Strin&lt;span style=&quot;background-color: transparent;&quot;&gt;g&lt;/span&gt;&lt;div&gt;+ buildingBlock&lt;span style=&quot;background-color: transparent;&quot;&gt;: String&lt;/span&gt;&lt;/div&gt;&lt;div&gt;&lt;span style=&quot;background-color: transparent;&quot;&gt;+&amp;nbsp;&lt;/span&gt;area&lt;span style=&quot;background-color: transparent;&quot;&gt;: String&lt;/span&gt;&lt;/div&gt;&lt;div&gt;&lt;span style=&quot;background-color: transparent;&quot;&gt;+&amp;nbsp;&lt;/span&gt;numLightBulbs&lt;span style=&quot;background-color: transparent;&quot;&gt;: String&lt;/span&gt;&lt;/div&gt;&lt;div&gt;&lt;span style=&quot;background-color: transparent;&quot;&gt;+&amp;nbsp;&lt;/span&gt;startDateOfOperation&lt;span style=&quot;background-color: transparent;&quot;&gt;: String&lt;/span&gt;&lt;/div&gt;" style="text;strokeColor=none;fillColor=none;align=left;verticalAlign=top;spacingLeft=4;spacingRight=4;overflow=hidden;rotatable=0;points=[[0,0.5],[1,0.5]];portConstraint=eastwest;whiteSpace=wrap;html=1;fontColor=default;rounded=0;" parent="zzaShAJUH8Mr4S-TDmGa-54" vertex="1">
                    <mxGeometry y="40" width="180" height="94" as="geometry"/>
                </mxCell>
                <mxCell id="zzaShAJUH8Mr4S-TDmGa-58" value="AddRoomUsecase" style="swimlane;fontStyle=1;align=center;verticalAlign=top;childLayout=stackLayout;horizontal=1;startSize=26;horizontalStack=0;resizeParent=1;resizeParentMax=0;resizeLast=0;collapsible=1;marginBottom=0;whiteSpace=wrap;html=1;fontColor=default;rounded=0;" parent="1" vertex="1">
                    <mxGeometry x="-160" y="1160" width="160" height="100" as="geometry"/>
                </mxCell>
                <mxCell id="zzaShAJUH8Mr4S-TDmGa-59" value="+ roomDTO: type" style="text;strokeColor=none;fillColor=none;align=left;verticalAlign=top;spacingLeft=4;spacingRight=4;overflow=hidden;rotatable=0;points=[[0,0.5],[1,0.5]];portConstraint=eastwest;whiteSpace=wrap;html=1;fontColor=default;rounded=0;" parent="zzaShAJUH8Mr4S-TDmGa-58" vertex="1">
                    <mxGeometry y="26" width="160" height="26" as="geometry"/>
                </mxCell>
                <mxCell id="zzaShAJUH8Mr4S-TDmGa-60" value="" style="line;strokeWidth=1;fillColor=none;align=left;verticalAlign=middle;spacingTop=-1;spacingLeft=3;spacingRight=3;rotatable=0;labelPosition=right;points=[];portConstraint=eastwest;strokeColor=inherit;fontColor=default;rounded=0;" parent="zzaShAJUH8Mr4S-TDmGa-58" vertex="1">
                    <mxGeometry y="52" width="160" height="8" as="geometry"/>
                </mxCell>
                <mxCell id="zzaShAJUH8Mr4S-TDmGa-61" value="+ execute(): type&lt;br&gt;+ convertToDTO(): type" style="text;strokeColor=none;fillColor=none;align=left;verticalAlign=top;spacingLeft=4;spacingRight=4;overflow=hidden;rotatable=0;points=[[0,0.5],[1,0.5]];portConstraint=eastwest;whiteSpace=wrap;html=1;fontColor=default;rounded=0;" parent="zzaShAJUH8Mr4S-TDmGa-58" vertex="1">
                    <mxGeometry y="60" width="160" height="40" as="geometry"/>
                </mxCell>
                <mxCell id="2" value="&lt;code&gt;&lt;font&gt;LectureHallDTO&lt;/font&gt;&lt;/code&gt;" style="swimlane;fontStyle=1;align=center;verticalAlign=top;childLayout=stackLayout;horizontal=1;startSize=26;horizontalStack=0;resizeParent=1;resizeParentMax=0;resizeLast=0;collapsible=1;marginBottom=0;whiteSpace=wrap;html=1;fontColor=default;rounded=0;" parent="1" vertex="1">
                    <mxGeometry x="-750" y="1220" width="170" height="52" as="geometry"/>
                </mxCell>
                <mxCell id="3" value="+ hasProjector: String" style="text;strokeColor=none;fillColor=none;align=left;verticalAlign=top;spacingLeft=4;spacingRight=4;overflow=hidden;rotatable=0;points=[[0,0.5],[1,0.5]];portConstraint=eastwest;whiteSpace=wrap;html=1;fontColor=default;rounded=0;" parent="2" vertex="1">
                    <mxGeometry y="26" width="170" height="26" as="geometry"/>
                </mxCell>
                <mxCell id="6" value="&lt;code&gt;&lt;font&gt;ComputerLabDTO&lt;/font&gt;&lt;/code&gt;" style="swimlane;fontStyle=1;align=center;verticalAlign=top;childLayout=stackLayout;horizontal=1;startSize=26;horizontalStack=0;resizeParent=1;resizeParentMax=0;resizeLast=0;collapsible=1;marginBottom=0;whiteSpace=wrap;html=1;fontColor=default;rounded=0;" parent="1" vertex="1">
                    <mxGeometry x="-750" y="1350" width="170" height="52" as="geometry"/>
                </mxCell>
                <mxCell id="7" value="+&amp;nbsp;&lt;code&gt;&lt;font&gt;numComputers&lt;/font&gt;&lt;/code&gt;: String" style="text;strokeColor=none;fillColor=none;align=left;verticalAlign=top;spacingLeft=4;spacingRight=4;overflow=hidden;rotatable=0;points=[[0,0.5],[1,0.5]];portConstraint=eastwest;whiteSpace=wrap;html=1;fontColor=default;rounded=0;" parent="6" vertex="1">
                    <mxGeometry y="26" width="170" height="26" as="geometry"/>
                </mxCell>
                <mxCell id="10" value="&lt;code&gt;&lt;font&gt;LaboratoryDTO&lt;/font&gt;&lt;/code&gt;" style="swimlane;fontStyle=1;align=center;verticalAlign=top;childLayout=stackLayout;horizontal=1;startSize=26;horizontalStack=0;resizeParent=1;resizeParentMax=0;resizeLast=0;collapsible=1;marginBottom=0;whiteSpace=wrap;html=1;fontColor=default;rounded=0;" parent="1" vertex="1">
                    <mxGeometry x="-750" y="1060" width="170" height="80" as="geometry"/>
                </mxCell>
                <mxCell id="11" value="+&amp;nbsp;&lt;code&gt;&lt;font&gt;specialization&lt;/font&gt;&lt;/code&gt;: String&lt;div&gt;+ capacity&lt;span style=&quot;background-color: transparent;&quot;&gt;: String&lt;/span&gt;&lt;/div&gt;&lt;div&gt;&lt;span style=&quot;background-color: transparent;&quot;&gt;+&amp;nbsp;&lt;/span&gt;hasSink&lt;span style=&quot;background-color: transparent;&quot;&gt;: String&lt;/span&gt;&lt;/div&gt;" style="text;strokeColor=none;fillColor=none;align=left;verticalAlign=top;spacingLeft=4;spacingRight=4;overflow=hidden;rotatable=0;points=[[0,0.5],[1,0.5]];portConstraint=eastwest;whiteSpace=wrap;html=1;fontColor=default;rounded=0;" parent="10" vertex="1">
                    <mxGeometry y="26" width="170" height="54" as="geometry"/>
                </mxCell>
                <mxCell id="15" value="Extends" style="endArrow=block;endSize=16;endFill=0;html=1;" parent="1" source="2" target="zzaShAJUH8Mr4S-TDmGa-54" edge="1">
                    <mxGeometry width="160" relative="1" as="geometry">
                        <mxPoint x="-40" y="1040" as="sourcePoint"/>
                        <mxPoint x="120" y="1040" as="targetPoint"/>
                    </mxGeometry>
                </mxCell>
                <mxCell id="16" value="Extends" style="endArrow=block;endSize=16;endFill=0;html=1;" parent="1" source="6" target="zzaShAJUH8Mr4S-TDmGa-54" edge="1">
                    <mxGeometry width="160" relative="1" as="geometry">
                        <mxPoint x="40" y="1170" as="sourcePoint"/>
                        <mxPoint x="200" y="1170" as="targetPoint"/>
                    </mxGeometry>
                </mxCell>
                <mxCell id="17" value="Extends" style="endArrow=block;endSize=16;endFill=0;html=1;" parent="1" source="10" target="zzaShAJUH8Mr4S-TDmGa-54" edge="1">
                    <mxGeometry width="160" relative="1" as="geometry">
                        <mxPoint x="-150" y="1270" as="sourcePoint"/>
                        <mxPoint x="10" y="1270" as="targetPoint"/>
                    </mxGeometry>
                </mxCell>
                <mxCell id="19" value="Use" style="endArrow=open;endSize=12;dashed=1;html=1;" parent="1" source="zzaShAJUH8Mr4S-TDmGa-58" target="zzaShAJUH8Mr4S-TDmGa-49" edge="1">
                    <mxGeometry width="160" relative="1" as="geometry">
                        <mxPoint x="-490" y="1150" as="sourcePoint"/>
                        <mxPoint x="-330" y="1150" as="targetPoint"/>
                    </mxGeometry>
                </mxCell>
                <mxCell id="21" value="Use" style="endArrow=open;endSize=12;dashed=1;html=1;" parent="1" source="zzaShAJUH8Mr4S-TDmGa-58" target="zzaShAJUH8Mr4S-TDmGa-55" edge="1">
                    <mxGeometry width="160" relative="1" as="geometry">
                        <mxPoint x="-300" y="1280" as="sourcePoint"/>
                        <mxPoint x="-140" y="1280" as="targetPoint"/>
                    </mxGeometry>
                </mxCell>
                <mxCell id="22" value="Use" style="endArrow=open;endSize=12;dashed=1;html=1;" parent="1" source="zzaShAJUH8Mr4S-TDmGa-58" target="zzaShAJUH8Mr4S-TDmGa-12" edge="1">
                    <mxGeometry width="160" relative="1" as="geometry">
                        <mxPoint x="100" y="1050" as="sourcePoint"/>
                        <mxPoint x="260" y="1050" as="targetPoint"/>
                    </mxGeometry>
                </mxCell>
                <mxCell id="24" value="" style="endArrow=open;endFill=1;endSize=12;html=1;" parent="1" source="zzaShAJUH8Mr4S-TDmGa-58" target="zzaShAJUH8Mr4S-TDmGa-39" edge="1">
                    <mxGeometry width="160" relative="1" as="geometry">
                        <mxPoint x="-400" y="1400" as="sourcePoint"/>
                        <mxPoint x="-240" y="1400" as="targetPoint"/>
                    </mxGeometry>
                </mxCell>
                <mxCell id="27" value="ViewRoomUseCase" style="swimlane;fontStyle=1;align=center;verticalAlign=top;childLayout=stackLayout;horizontal=1;startSize=26;horizontalStack=0;resizeParent=1;resizeParentMax=0;resizeLast=0;collapsible=1;marginBottom=0;" vertex="1" parent="1">
                    <mxGeometry x="850" y="1274" width="160" height="86" as="geometry"/>
                </mxCell>
                <mxCell id="28" value="+ field: type" style="text;strokeColor=none;fillColor=none;align=left;verticalAlign=top;spacingLeft=4;spacingRight=4;overflow=hidden;rotatable=0;points=[[0,0.5],[1,0.5]];portConstraint=eastwest;" vertex="1" parent="27">
                    <mxGeometry y="26" width="160" height="26" as="geometry"/>
                </mxCell>
                <mxCell id="29" value="" style="line;strokeWidth=1;fillColor=none;align=left;verticalAlign=middle;spacingTop=-1;spacingLeft=3;spacingRight=3;rotatable=0;labelPosition=right;points=[];portConstraint=eastwest;strokeColor=inherit;" vertex="1" parent="27">
                    <mxGeometry y="52" width="160" height="8" as="geometry"/>
                </mxCell>
                <mxCell id="30" value="+ execute(): type" style="text;strokeColor=none;fillColor=none;align=left;verticalAlign=top;spacingLeft=4;spacingRight=4;overflow=hidden;rotatable=0;points=[[0,0.5],[1,0.5]];portConstraint=eastwest;" vertex="1" parent="27">
                    <mxGeometry y="60" width="160" height="26" as="geometry"/>
                </mxCell>
                <mxCell id="32" value="ViewRoomDAO" style="swimlane;fontStyle=1;align=center;verticalAlign=top;childLayout=stackLayout;horizontal=1;startSize=26;horizontalStack=0;resizeParent=1;resizeParentMax=0;resizeLast=0;collapsible=1;marginBottom=0;whiteSpace=wrap;html=1;fontColor=default;rounded=0;" vertex="1" parent="1">
                    <mxGeometry x="850" y="1820" width="200" height="86" as="geometry"/>
                </mxCell>
                <mxCell id="33" value="+ connection: Connection" style="text;strokeColor=none;fillColor=none;align=left;verticalAlign=top;spacingLeft=4;spacingRight=4;overflow=hidden;rotatable=0;points=[[0,0.5],[1,0.5]];portConstraint=eastwest;whiteSpace=wrap;html=1;fontColor=default;rounded=0;" vertex="1" parent="32">
                    <mxGeometry y="26" width="200" height="26" as="geometry"/>
                </mxCell>
                <mxCell id="34" value="" style="line;strokeWidth=1;fillColor=none;align=left;verticalAlign=middle;spacingTop=-1;spacingLeft=3;spacingRight=3;rotatable=0;labelPosition=right;points=[];portConstraint=eastwest;strokeColor=inherit;fontColor=default;rounded=0;" vertex="1" parent="32">
                    <mxGeometry y="52" width="200" height="8" as="geometry"/>
                </mxCell>
                <mxCell id="35" value="+ ViewRoom(&lt;span style=&quot;text-align: center;&quot;&gt;PhongHocDTO&lt;/span&gt;): void" style="text;strokeColor=none;fillColor=none;align=left;verticalAlign=top;spacingLeft=4;spacingRight=4;overflow=hidden;rotatable=0;points=[[0,0.5],[1,0.5]];portConstraint=eastwest;whiteSpace=wrap;html=1;fontColor=default;rounded=0;" vertex="1" parent="32">
                    <mxGeometry y="60" width="200" height="26" as="geometry"/>
                </mxCell>
                <mxCell id="38" value="&lt;i style=&quot;font-weight: normal;&quot;&gt;&amp;lt;&amp;lt;Interface&amp;gt;&amp;gt;&lt;/i&gt;&lt;div&gt;&lt;i&gt;ViewRoomGateway&lt;/i&gt;&lt;/div&gt;" style="swimlane;fontStyle=1;align=center;verticalAlign=top;childLayout=stackLayout;horizontal=1;startSize=40;horizontalStack=0;resizeParent=1;resizeParentMax=0;resizeLast=0;collapsible=1;marginBottom=0;whiteSpace=wrap;html=1;fontColor=default;rounded=0;" vertex="1" parent="1">
                    <mxGeometry x="850" y="1680" width="200" height="66" as="geometry"/>
                </mxCell>
                <mxCell id="39" value="+ ViewRoom(&lt;span style=&quot;text-align: center;&quot;&gt;PhongHocDTO&lt;/span&gt;): void" style="text;strokeColor=none;fillColor=none;align=left;verticalAlign=top;spacingLeft=4;spacingRight=4;overflow=hidden;rotatable=0;points=[[0,0.5],[1,0.5]];portConstraint=eastwest;whiteSpace=wrap;html=1;fontColor=default;rounded=0;" vertex="1" parent="38">
                    <mxGeometry y="40" width="200" height="26" as="geometry"/>
                </mxCell>
                <mxCell id="46" value="" style="endArrow=block;dashed=1;endFill=0;endSize=12;html=1;rounded=0;sourcePerimeterSpacing=8;targetPerimeterSpacing=8;curved=1;" edge="1" parent="1" source="32" target="38">
                    <mxGeometry width="160" relative="1" as="geometry">
                        <mxPoint x="1000" y="1830" as="sourcePoint"/>
                        <mxPoint x="1160" y="1830" as="targetPoint"/>
                    </mxGeometry>
                </mxCell>
                <mxCell id="47" value="" style="endArrow=open;endFill=1;endSize=12;html=1;rounded=0;sourcePerimeterSpacing=8;targetPerimeterSpacing=8;curved=1;" edge="1" parent="1" source="27" target="38">
                    <mxGeometry width="160" relative="1" as="geometry">
                        <mxPoint x="910" y="1390" as="sourcePoint"/>
                        <mxPoint x="1070" y="1390" as="targetPoint"/>
                    </mxGeometry>
                </mxCell>
                <mxCell id="48" value="RoomDTO" style="swimlane;fontStyle=1;align=center;verticalAlign=top;childLayout=stackLayout;horizontal=1;startSize=26;horizontalStack=0;resizeParent=1;resizeParentMax=0;resizeLast=0;collapsible=1;marginBottom=0;whiteSpace=wrap;html=1;fontColor=default;rounded=0;" vertex="1" parent="1">
                    <mxGeometry x="1160" y="1680" width="180" height="180" as="geometry"/>
                </mxCell>
                <mxCell id="49" value="+&amp;nbsp;&lt;code&gt;&lt;font&gt;roomId&lt;/font&gt;&lt;/code&gt;: Strin&lt;span style=&quot;background-color: transparent;&quot;&gt;g&lt;/span&gt;&lt;div&gt;+ buildingBlock&lt;span style=&quot;background-color: transparent;&quot;&gt;: String&lt;/span&gt;&lt;/div&gt;&lt;div&gt;&lt;span style=&quot;background-color: transparent;&quot;&gt;+&amp;nbsp;&lt;/span&gt;area&lt;span style=&quot;background-color: transparent;&quot;&gt;: double&lt;/span&gt;&lt;/div&gt;&lt;div&gt;&lt;span style=&quot;background-color: transparent;&quot;&gt;+&amp;nbsp;&lt;/span&gt;numLightBulbs&lt;span style=&quot;background-color: transparent;&quot;&gt;: int&lt;/span&gt;&lt;/div&gt;&lt;div&gt;&lt;span style=&quot;background-color: transparent;&quot;&gt;+&amp;nbsp;&lt;/span&gt;startDateOfOperation&lt;span style=&quot;background-color: transparent;&quot;&gt;: Date&lt;/span&gt;&lt;/div&gt;&lt;div&gt;+ hasProjector: Boolean&lt;/div&gt;&lt;div&gt;+&amp;nbsp;&lt;code&gt;&lt;font&gt;numComputers&lt;/font&gt;&lt;/code&gt;: int&lt;/div&gt;&lt;div&gt;+&amp;nbsp;&lt;code&gt;&lt;font&gt;specialization&lt;/font&gt;&lt;/code&gt;: String&lt;div&gt;+ capacity&lt;span style=&quot;background-color: transparent;&quot;&gt;: int&lt;/span&gt;&lt;/div&gt;&lt;div&gt;&lt;span style=&quot;background-color: transparent;&quot;&gt;+&amp;nbsp;&lt;/span&gt;hasSink&lt;span style=&quot;background-color: transparent;&quot;&gt;: Boolean&lt;/span&gt;&lt;/div&gt;&lt;/div&gt;" style="text;strokeColor=none;fillColor=none;align=left;verticalAlign=top;spacingLeft=4;spacingRight=4;overflow=hidden;rotatable=0;points=[[0,0.5],[1,0.5]];portConstraint=eastwest;whiteSpace=wrap;html=1;fontColor=default;rounded=0;" vertex="1" parent="48">
                    <mxGeometry y="26" width="180" height="154" as="geometry"/>
                </mxCell>
                <mxCell id="50" value="Use" style="endArrow=open;endSize=12;dashed=1;html=1;rounded=0;sourcePerimeterSpacing=8;targetPerimeterSpacing=8;curved=1;" edge="1" parent="1" source="38" target="48">
                    <mxGeometry width="160" relative="1" as="geometry">
                        <mxPoint x="1020" y="1790" as="sourcePoint"/>
                        <mxPoint x="1180" y="1790" as="targetPoint"/>
                    </mxGeometry>
                </mxCell>
                <mxCell id="51" value="Use" style="endArrow=open;endSize=12;dashed=1;html=1;rounded=0;sourcePerimeterSpacing=8;targetPerimeterSpacing=8;curved=1;" edge="1" parent="1" source="32" target="48">
                    <mxGeometry width="160" relative="1" as="geometry">
                        <mxPoint x="1068" y="1743.5200000000004" as="sourcePoint"/>
                        <mxPoint x="1161.9999999999995" y="1761.38" as="targetPoint"/>
                    </mxGeometry>
                </mxCell>
                <mxCell id="52" value="RoomFactory" style="swimlane;fontStyle=1;align=center;verticalAlign=top;childLayout=stackLayout;horizontal=1;startSize=26;horizontalStack=0;resizeParent=1;resizeParentMax=0;resizeLast=0;collapsible=1;marginBottom=0;whiteSpace=wrap;html=1;rounded=0;fillColor=default;strokeColor=default;" vertex="1" parent="1">
                    <mxGeometry x="1120" y="1360" width="190" height="52" as="geometry"/>
                </mxCell>
                <mxCell id="53" value="+ createRoom(RoomDTO): Room" style="text;strokeColor=none;fillColor=default;align=left;verticalAlign=top;spacingLeft=4;spacingRight=4;overflow=hidden;rotatable=0;points=[[0,0.5],[1,0.5]];portConstraint=eastwest;whiteSpace=wrap;html=1;fontColor=default;rounded=0;" vertex="1" parent="52">
                    <mxGeometry y="26" width="190" height="26" as="geometry"/>
                </mxCell>
                <mxCell id="54" value="Use" style="endArrow=open;endSize=12;dashed=1;html=1;rounded=0;sourcePerimeterSpacing=8;targetPerimeterSpacing=8;curved=1;" edge="1" parent="1" source="27" target="52">
                    <mxGeometry width="160" relative="1" as="geometry">
                        <mxPoint x="1100" y="1360" as="sourcePoint"/>
                        <mxPoint x="1260" y="1360" as="targetPoint"/>
                    </mxGeometry>
                </mxCell>
                <mxCell id="55" value="Use" style="endArrow=open;endSize=12;dashed=1;html=1;rounded=0;sourcePerimeterSpacing=8;targetPerimeterSpacing=8;curved=1;" edge="1" parent="1" source="52" target="48">
                    <mxGeometry width="160" relative="1" as="geometry">
                        <mxPoint x="1330" y="1490" as="sourcePoint"/>
                        <mxPoint x="1490" y="1490" as="targetPoint"/>
                    </mxGeometry>
                </mxCell>
                <mxCell id="56" value="&lt;div&gt;&lt;code&gt;&lt;i&gt;&lt;font&gt;&amp;lt;&amp;lt;Abstract&amp;gt;&amp;gt;&lt;/font&gt;&lt;/i&gt;&lt;/code&gt;&lt;/div&gt;&lt;font face=&quot;monospace&quot;&gt;&lt;i&gt;Room&lt;/i&gt;&lt;/font&gt;" style="swimlane;fontStyle=1;align=center;verticalAlign=top;childLayout=stackLayout;horizontal=1;startSize=40;horizontalStack=0;resizeParent=1;resizeParentMax=0;resizeLast=0;collapsible=1;marginBottom=0;whiteSpace=wrap;html=1;fontColor=default;rounded=0;" vertex="1" parent="1">
                    <mxGeometry x="1360" y="1055" width="190" height="190" as="geometry"/>
                </mxCell>
                <mxCell id="57" value="#&amp;nbsp;&lt;code&gt;&lt;font&gt;roomId&lt;/font&gt;&lt;/code&gt;: Strin&lt;span style=&quot;background-color: transparent;&quot;&gt;g&lt;/span&gt;&lt;div&gt;&lt;div&gt;# buildingBlock&lt;span style=&quot;background-color: transparent;&quot;&gt;: String&lt;/span&gt;&lt;/div&gt;&lt;/div&gt;&lt;div&gt;&lt;span style=&quot;background-color: transparent;&quot;&gt;#&amp;nbsp;&lt;/span&gt;area&lt;span style=&quot;background-color: transparent;&quot;&gt;: double&lt;/span&gt;&lt;/div&gt;&lt;div&gt;&lt;span style=&quot;background-color: transparent;&quot;&gt;#&amp;nbsp;&lt;/span&gt;numLightBulbs&lt;span style=&quot;background-color: transparent;&quot;&gt;: int&lt;/span&gt;&lt;/div&gt;&lt;div&gt;&lt;span style=&quot;background-color: transparent;&quot;&gt;#&amp;nbsp;&lt;/span&gt;startDateOfOperation&lt;span style=&quot;background-color: transparent;&quot;&gt;: Date&lt;/span&gt;&lt;/div&gt;" style="text;strokeColor=none;fillColor=none;align=left;verticalAlign=top;spacingLeft=4;spacingRight=4;overflow=hidden;rotatable=0;points=[[0,0.5],[1,0.5]];portConstraint=eastwest;whiteSpace=wrap;html=1;fontColor=default;rounded=0;" vertex="1" parent="56">
                    <mxGeometry y="40" width="190" height="84" as="geometry"/>
                </mxCell>
                <mxCell id="58" value="" style="line;strokeWidth=1;fillColor=none;align=left;verticalAlign=middle;spacingTop=-1;spacingLeft=3;spacingRight=3;rotatable=0;labelPosition=right;points=[];portConstraint=eastwest;strokeColor=inherit;fontColor=default;rounded=0;" vertex="1" parent="56">
                    <mxGeometry y="124" width="190" height="8" as="geometry"/>
                </mxCell>
                <mxCell id="59" value="# contructor()&amp;nbsp;&lt;br&gt;# checkSufficientLight(): Boolean&lt;div&gt;&lt;i&gt;#&amp;nbsp;meetsStandard(): Boolean&lt;/i&gt;&lt;/div&gt;" style="text;strokeColor=none;fillColor=none;align=left;verticalAlign=top;spacingLeft=4;spacingRight=4;overflow=hidden;rotatable=0;points=[[0,0.5],[1,0.5]];portConstraint=eastwest;whiteSpace=wrap;html=1;fontColor=default;rounded=0;" vertex="1" parent="56">
                    <mxGeometry y="132" width="190" height="58" as="geometry"/>
                </mxCell>
                <mxCell id="60" value="&lt;code&gt;&lt;font&gt;LectureHall             &lt;/font&gt;&lt;/code&gt;" style="swimlane;fontStyle=1;align=center;verticalAlign=top;childLayout=stackLayout;horizontal=1;startSize=26;horizontalStack=0;resizeParent=1;resizeParentMax=0;resizeLast=0;collapsible=1;marginBottom=0;whiteSpace=wrap;html=1;fontColor=default;rounded=0;" vertex="1" parent="1">
                    <mxGeometry x="1670" y="1055" width="170" height="120" as="geometry"/>
                </mxCell>
                <mxCell id="61" value="+ hasProjector: Boolean" style="text;strokeColor=none;fillColor=none;align=left;verticalAlign=top;spacingLeft=4;spacingRight=4;overflow=hidden;rotatable=0;points=[[0,0.5],[1,0.5]];portConstraint=eastwest;whiteSpace=wrap;html=1;fontColor=default;rounded=0;" vertex="1" parent="60">
                    <mxGeometry y="26" width="170" height="26" as="geometry"/>
                </mxCell>
                <mxCell id="62" value="" style="line;strokeWidth=1;fillColor=none;align=left;verticalAlign=middle;spacingTop=-1;spacingLeft=3;spacingRight=3;rotatable=0;labelPosition=right;points=[];portConstraint=eastwest;strokeColor=inherit;fontColor=default;rounded=0;" vertex="1" parent="60">
                    <mxGeometry y="52" width="170" height="8" as="geometry"/>
                </mxCell>
                <mxCell id="63" value="+ contructor()&lt;div&gt;@Override&lt;br&gt;+ meetsStandard():&amp;nbsp;&lt;span style=&quot;background-color: transparent;&quot;&gt;Boolean&lt;/span&gt;&lt;/div&gt;" style="text;strokeColor=none;fillColor=none;align=left;verticalAlign=top;spacingLeft=4;spacingRight=4;overflow=hidden;rotatable=0;points=[[0,0.5],[1,0.5]];portConstraint=eastwest;whiteSpace=wrap;html=1;fontColor=default;rounded=0;" vertex="1" parent="60">
                    <mxGeometry y="60" width="170" height="60" as="geometry"/>
                </mxCell>
                <mxCell id="64" value="&lt;code&gt;&lt;font&gt;ComputerLab             &lt;/font&gt;&lt;/code&gt;" style="swimlane;fontStyle=1;align=center;verticalAlign=top;childLayout=stackLayout;horizontal=1;startSize=26;horizontalStack=0;resizeParent=1;resizeParentMax=0;resizeLast=0;collapsible=1;marginBottom=0;whiteSpace=wrap;html=1;fontColor=default;rounded=0;" vertex="1" parent="1">
                    <mxGeometry x="1670" y="1215" width="170" height="120" as="geometry"/>
                </mxCell>
                <mxCell id="65" value="+&amp;nbsp;&lt;code&gt;&lt;font&gt;numComputers&lt;/font&gt;&lt;/code&gt;: int" style="text;strokeColor=none;fillColor=none;align=left;verticalAlign=top;spacingLeft=4;spacingRight=4;overflow=hidden;rotatable=0;points=[[0,0.5],[1,0.5]];portConstraint=eastwest;whiteSpace=wrap;html=1;fontColor=default;rounded=0;" vertex="1" parent="64">
                    <mxGeometry y="26" width="170" height="26" as="geometry"/>
                </mxCell>
                <mxCell id="66" value="" style="line;strokeWidth=1;fillColor=none;align=left;verticalAlign=middle;spacingTop=-1;spacingLeft=3;spacingRight=3;rotatable=0;labelPosition=right;points=[];portConstraint=eastwest;strokeColor=inherit;fontColor=default;rounded=0;" vertex="1" parent="64">
                    <mxGeometry y="52" width="170" height="8" as="geometry"/>
                </mxCell>
                <mxCell id="67" value="+ contructor()&lt;div&gt;@Override&lt;br&gt;+ meetsStandard():&amp;nbsp;&lt;span style=&quot;background-color: transparent;&quot;&gt;Boolean&lt;/span&gt;&lt;/div&gt;" style="text;strokeColor=none;fillColor=none;align=left;verticalAlign=top;spacingLeft=4;spacingRight=4;overflow=hidden;rotatable=0;points=[[0,0.5],[1,0.5]];portConstraint=eastwest;whiteSpace=wrap;html=1;fontColor=default;rounded=0;" vertex="1" parent="64">
                    <mxGeometry y="60" width="170" height="60" as="geometry"/>
                </mxCell>
                <mxCell id="68" value="&lt;code&gt;&lt;font&gt;Laboratory              &lt;/font&gt;&lt;/code&gt;" style="swimlane;fontStyle=1;align=center;verticalAlign=top;childLayout=stackLayout;horizontal=1;startSize=26;horizontalStack=0;resizeParent=1;resizeParentMax=0;resizeLast=0;collapsible=1;marginBottom=0;whiteSpace=wrap;html=1;fontColor=default;rounded=0;" vertex="1" parent="1">
                    <mxGeometry x="1670" y="1375" width="170" height="150" as="geometry"/>
                </mxCell>
                <mxCell id="69" value="+&amp;nbsp;&lt;code&gt;&lt;font&gt;specialization&lt;/font&gt;&lt;/code&gt;: String&lt;div&gt;+ capacity&lt;span style=&quot;background-color: transparent;&quot;&gt;: int&lt;/span&gt;&lt;/div&gt;&lt;div&gt;&lt;span style=&quot;background-color: transparent;&quot;&gt;+&amp;nbsp;&lt;/span&gt;hasSink&lt;span style=&quot;background-color: transparent;&quot;&gt;: Boolean&lt;/span&gt;&lt;/div&gt;" style="text;strokeColor=none;fillColor=none;align=left;verticalAlign=top;spacingLeft=4;spacingRight=4;overflow=hidden;rotatable=0;points=[[0,0.5],[1,0.5]];portConstraint=eastwest;whiteSpace=wrap;html=1;fontColor=default;rounded=0;" vertex="1" parent="68">
                    <mxGeometry y="26" width="170" height="54" as="geometry"/>
                </mxCell>
                <mxCell id="70" value="" style="line;strokeWidth=1;fillColor=none;align=left;verticalAlign=middle;spacingTop=-1;spacingLeft=3;spacingRight=3;rotatable=0;labelPosition=right;points=[];portConstraint=eastwest;strokeColor=inherit;fontColor=default;rounded=0;" vertex="1" parent="68">
                    <mxGeometry y="80" width="170" height="8" as="geometry"/>
                </mxCell>
                <mxCell id="71" value="+ contructor()&lt;div&gt;@Override&lt;br&gt;+ meetsStandard():&amp;nbsp;&lt;span style=&quot;background-color: transparent;&quot;&gt;Boolean&lt;/span&gt;&lt;/div&gt;" style="text;strokeColor=none;fillColor=none;align=left;verticalAlign=top;spacingLeft=4;spacingRight=4;overflow=hidden;rotatable=0;points=[[0,0.5],[1,0.5]];portConstraint=eastwest;whiteSpace=wrap;html=1;fontColor=default;rounded=0;" vertex="1" parent="68">
                    <mxGeometry y="88" width="170" height="62" as="geometry"/>
                </mxCell>
                <mxCell id="72" value="Use" style="endArrow=open;endSize=12;dashed=1;html=1;rounded=0;sourcePerimeterSpacing=8;targetPerimeterSpacing=8;curved=1;" edge="1" parent="1" source="27" target="56">
                    <mxGeometry width="160" relative="1" as="geometry">
                        <mxPoint x="1130" y="1190" as="sourcePoint"/>
                        <mxPoint x="1290" y="1190" as="targetPoint"/>
                    </mxGeometry>
                </mxCell>
                <mxCell id="73" value="Extends" style="endArrow=block;endSize=16;endFill=0;html=1;rounded=0;sourcePerimeterSpacing=8;targetPerimeterSpacing=8;curved=1;" edge="1" parent="1" source="60" target="56">
                    <mxGeometry width="160" relative="1" as="geometry">
                        <mxPoint x="1490" y="1370" as="sourcePoint"/>
                        <mxPoint x="1650" y="1370" as="targetPoint"/>
                    </mxGeometry>
                </mxCell>
                <mxCell id="74" value="Extends" style="endArrow=block;endSize=16;endFill=0;html=1;rounded=0;sourcePerimeterSpacing=8;targetPerimeterSpacing=8;curved=1;" edge="1" parent="1" source="64" target="56">
                    <mxGeometry width="160" relative="1" as="geometry">
                        <mxPoint x="1672" y="1135.85" as="sourcePoint"/>
                        <mxPoint x="1568" y="1147.9833333333333" as="targetPoint"/>
                    </mxGeometry>
                </mxCell>
                <mxCell id="75" value="Extends" style="endArrow=block;endSize=16;endFill=0;html=1;rounded=0;sourcePerimeterSpacing=8;targetPerimeterSpacing=8;curved=1;" edge="1" parent="1" source="68" target="56">
                    <mxGeometry width="160" relative="1" as="geometry">
                        <mxPoint x="1682" y="1145.85" as="sourcePoint"/>
                        <mxPoint x="1578" y="1157.9833333333333" as="targetPoint"/>
                    </mxGeometry>
                </mxCell>
            </root>
        </mxGraphModel>
    </diagram>
</mxfile>